<svg width="150" height="150" xmlns="http://www.w3.org/2000/svg">
  <path d="M80 140h5a5 5 0 1 1 0 10H75a5 5 0 0 1-5-5v-17a5 5 0 1 1 10 0v12zM4 0h42a4 4 0 0 1 4 4v42a4 4 0 0 1-4 4H4a4 4 0 0 1-4-4V4a4 4 0 0 1 4-4zm9 10a3 3 0 0 0-3 3v24a3 3 0 0 0 3 3h24a3 3 0 0 0 3-3V13a3 3 0 0 0-3-3H13zm91-10h42a4 4 0 0 1 4 4v42a4 4 0 0 1-4 4h-42a4 4 0 0 1-4-4V4a4 4 0 0 1 4-4zm9 10a3 3 0 0 0-3 3v24a3 3 0 0 0 3 3h24a3 3 0 0 0 3-3V13a3 3 0 0 0-3-3h-24zm-9 90h42a4 4 0 0 1 4 4v42a4 4 0 0 1-4 4h-42a4 4 0 0 1-4-4v-42a4 4 0 0 1 4-4zm9 10a3 3 0 0 0-3 3v24a3 3 0 0 0 3 3h24a3 3 0 0 0 3-3v-24a3 3 0 0 0-3-3h-24zm-70.325 15.325L18 150 1 133l24.555-24.555-10.454-10.309A3 3 0 0 1 17.208 93h34.05a6 6 0 0 1 6 6v33.534a3 3 0 0 1-5.106 2.136l-9.477-9.345zM5 67h38a5 5 0 0 1 0 10H5a5 5 0 0 1 0-10zm91 2v16a5 5 0 0 1-10 0V74H61a5 5 0 0 1-5-5V56a5 5 0 0 1 10 0v8h25a5 5 0 0 1 5 5zm39 2h-20v14a5 5 0 1 1-10 0V66a5 5 0 0 1 5-5h30a5 5 0 0 1 5 5v19a5 5 0 1 1-10 0V71zM90 23v22a5 5 0 0 1-10 0V23a5 5 0 0 1 10 0zM70 5v24a5 5 0 0 1-10 0V5a5 5 0 0 1 10 0zm1 95h15a5 5 0 1 1 0 10H71a5 5 0 1 1 0-10zM30 25a5 5 0 1 1-10 0 5 5 0 0 1 10 0zm100 0a5 5 0 1 1-10 0 5 5 0 0 1 10 0zm0 100a5 5 0 1 1-10 0 5 5 0 0 1 10 0z" fill="#4A4A4A" fill-rule="nonzero"/>
</svg>
